<svg width="75" height="23" viewBox="0 0 75 23" fill="none" xmlns="http://www.w3.org/2000/svg">
<path d="M5.29883 18.4697H14.6299V22H0.904297V0.671875H5.29883V18.4697ZM33.7461 11.8193C33.7461 13.9189 33.375 15.7598 32.6328 17.3418C31.8906 18.9238 30.8262 20.1445 29.4395 21.0039C28.0625 21.8633 26.4805 22.293 24.6934 22.293C22.9258 22.293 21.3486 21.8682 19.9619 21.0186C18.5752 20.1689 17.501 18.958 16.7393 17.3857C15.9775 15.8037 15.5918 13.9873 15.582 11.9365V10.8818C15.582 8.78223 15.958 6.93652 16.71 5.34473C17.4717 3.74316 18.541 2.51758 19.918 1.66797C21.3047 0.808594 22.8867 0.378906 24.6641 0.378906C26.4414 0.378906 28.0186 0.808594 29.3955 1.66797C30.7822 2.51758 31.8516 3.74316 32.6035 5.34473C33.3652 6.93652 33.7461 8.77734 33.7461 10.8672V11.8193ZM29.293 10.8525C29.293 8.61621 28.8926 6.91699 28.0918 5.75488C27.291 4.59277 26.1484 4.01172 24.6641 4.01172C23.1895 4.01172 22.0518 4.58789 21.251 5.74023C20.4502 6.88281 20.0449 8.5625 20.0352 10.7793V11.8193C20.0352 13.9971 20.4355 15.6865 21.2363 16.8877C22.0371 18.0889 23.1895 18.6895 24.6934 18.6895C26.168 18.6895 27.3008 18.1133 28.0918 16.9609C28.8828 15.7988 29.2832 14.1094 29.293 11.8926V10.8525ZM53.8145 19.3047C53.0234 20.252 51.9053 20.9893 50.46 21.5166C49.0146 22.0342 47.4131 22.293 45.6553 22.293C43.8096 22.293 42.1885 21.8926 40.792 21.0918C39.4053 20.2812 38.3311 19.1094 37.5693 17.5762C36.8174 16.043 36.4316 14.2412 36.4121 12.1709V10.7207C36.4121 8.5918 36.7686 6.75098 37.4814 5.19824C38.2041 3.63574 39.2393 2.44434 40.5869 1.62402C41.9443 0.793945 43.5312 0.378906 45.3477 0.378906C47.877 0.378906 49.8545 0.984375 51.2803 2.19531C52.7061 3.39648 53.5508 5.14941 53.8145 7.4541H49.5371C49.3418 6.2334 48.9072 5.33984 48.2334 4.77344C47.5693 4.20703 46.6514 3.92383 45.4795 3.92383C43.9854 3.92383 42.8477 4.48535 42.0664 5.6084C41.2852 6.73145 40.8896 8.40137 40.8799 10.6182V11.9805C40.8799 14.2168 41.3047 15.9062 42.1543 17.0488C43.0039 18.1914 44.249 18.7627 45.8896 18.7627C47.54 18.7627 48.7168 18.4111 49.4199 17.708V14.0312H45.4209V10.7939H53.8145V19.3047ZM74.9082 11.8193C74.9082 13.9189 74.5371 15.7598 73.7949 17.3418C73.0527 18.9238 71.9883 20.1445 70.6016 21.0039C69.2246 21.8633 67.6426 22.293 65.8555 22.293C64.0879 22.293 62.5107 21.8682 61.124 21.0186C59.7373 20.1689 58.6631 18.958 57.9014 17.3857C57.1396 15.8037 56.7539 13.9873 56.7441 11.9365V10.8818C56.7441 8.78223 57.1201 6.93652 57.8721 5.34473C58.6338 3.74316 59.7031 2.51758 61.0801 1.66797C62.4668 0.808594 64.0488 0.378906 65.8262 0.378906C67.6035 0.378906 69.1807 0.808594 70.5576 1.66797C71.9443 2.51758 73.0137 3.74316 73.7656 5.34473C74.5273 6.93652 74.9082 8.77734 74.9082 10.8672V11.8193ZM70.4551 10.8525C70.4551 8.61621 70.0547 6.91699 69.2539 5.75488C68.4531 4.59277 67.3105 4.01172 65.8262 4.01172C64.3516 4.01172 63.2139 4.58789 62.4131 5.74023C61.6123 6.88281 61.207 8.5625 61.1973 10.7793V11.8193C61.1973 13.9971 61.5977 15.6865 62.3984 16.8877C63.1992 18.0889 64.3516 18.6895 65.8555 18.6895C67.3301 18.6895 68.4629 18.1133 69.2539 16.9609C70.0449 15.7988 70.4453 14.1094 70.4551 11.8926V10.8525Z" fill="#0085FF"/>
</svg>
